<?xml version="1.0" encoding="UTF-8"?>
<svg version="1.1" xmlns="http://www.w3.org/2000/svg" width="2160" height="1620">
<path d="M0 0 C712.8 0 1425.6 0 2160 0 C2160 534.6 2160 1069.2 2160 1620 C1447.2 1620 734.4 1620 0 1620 C0 1085.4 0 550.8 0 0 Z " fill="#FEFEFE" transform="translate(0,0)"/>
<path d="M0 0 C0.66 0 1.32 0 2 0 C2 0.66 2 1.32 2 2 C2.721875 2.061875 3.44375 2.12375 4.1875 2.1875 C8.02483999 3.29606488 9.49461179 4.90123038 12 8 C13.5 11.5 13.5 11.5 14.19921875 13.6328125 C14.97923527 16.04690543 14.97923527 16.04690543 16.08203125 18.4921875 C21.06314151 30.16221725 23.33260158 42.6448847 26 55 C26.26756104 56.2375 26.26756104 56.2375 26.54052734 57.5 C27.19046606 60.51733206 27.83280564 63.5358285 28.45703125 66.55859375 C28.98260234 69.11902475 28.98260234 69.11902475 30 72 C30.17689198 73.32928612 30.31639214 74.66379024 30.4296875 76 C30.50316406 76.80695313 30.57664062 77.61390625 30.65234375 78.4453125 C30.79531632 80.08573459 30.93612823 81.72634723 31.07421875 83.3671875 C31.52512254 88.27363209 32.17764681 93.09364834 33.03695107 97.94654942 C35.30076386 111.04497829 36.03570152 124.18558475 36.7890625 137.44140625 C36.93845614 139.94625432 37.08873124 142.45104996 37.23983765 144.95579529 C37.63212185 151.49267887 38.01374692 158.03013827 38.39263916 164.56781006 C38.92863276 173.8010156 39.48133751 183.03324546 40.03158569 192.26560974 C40.32374842 197.16794765 40.61176692 202.07050088 40.89639282 206.97328186 C41.02807356 209.21599459 41.1597761 211.45870605 41.29150391 213.70141602 C41.34865067 214.7015976 41.40579742 215.70177917 41.4646759 216.73226929 C41.82604912 222.84041674 42.34133244 228.91668219 43 235 C43.26828613 234.03392822 43.26828613 234.03392822 43.54199219 233.04833984 C45.18977703 227.18137823 47.34287749 221.67802675 49.7421875 216.08203125 C50.99022338 213.02395576 52.04824204 209.95510243 53.0625 206.8125 C54.44187579 202.54747006 56.04756024 198.54098796 57.93359375 194.48046875 C59.27983635 191.34909859 60.38125076 188.15689766 61.5 184.9375 C63.08341288 180.41484669 64.79291326 176.19932308 67.0390625 171.9765625 C68.19450266 169.59992542 69.05989551 167.17989674 69.9375 164.6875 C71.63116035 159.87883297 73.63124873 155.2961012 75.7890625 150.6796875 C76.92394579 148.16830061 77.91039673 145.64301985 78.875 143.0625 C83.69959042 131.00102394 91.23025174 121.39893878 100 112 C100.76183594 111.18225098 101.52367187 110.36450195 102.30859375 109.52197266 C116.19387703 94.77833626 131.95402505 79.17052984 152 73.3125 C152.763125 73.08175781 153.52625 72.85101563 154.3125 72.61328125 C171.56508261 68.67628202 191.73559101 68.80444339 208 76 C208.66531738 76.28407715 209.33063477 76.5681543 210.01611328 76.86083984 C230.23889178 85.61313314 242.89660898 100.44070872 254 119 C254.59554687 119.95390625 255.19109375 120.9078125 255.8046875 121.890625 C259.53239279 128.00214183 262.38381246 134.07253767 264.8203125 140.80078125 C265.93588643 143.82612908 267.19160963 146.74159002 268.5 149.6875 C271.47836409 156.78903687 273.43044846 164.11457594 275.36181641 171.55419922 C276.01090935 174.04180944 276.68252924 176.52265255 277.35546875 179.00390625 C279.82630352 188.28904322 281.65865483 197.33818691 282.54296875 206.91015625 C282.83667962 209.9998932 283.38736911 212.97054395 284.01196289 216.01000977 C285.11523152 222.01848519 285.28943244 227.8335035 285.265625 233.9296875 C285.26849518 235.59621872 285.26849518 235.59621872 285.27142334 237.29641724 C285.27277656 239.63771797 285.26914084 241.97902644 285.26074219 244.3203125 C285.25013324 247.83090934 285.26061436 251.34098241 285.2734375 254.8515625 C285.28838304 274.30593758 283.9420451 293.12002128 280.078125 312.19604492 C279.6202327 314.46108222 279.1801971 316.72908915 278.7421875 318.99804688 C276.94518994 328.15950288 274.70851498 337.06003164 272 346 C271.56060588 347.52456908 271.12172296 349.04928568 270.68359375 350.57421875 C265.71437745 367.20856091 258.95743693 383.25720194 251.85351562 399.08251953 C250.70630981 401.65979485 249.63117696 404.26432204 248.5625 406.875 C246.54326213 411.75585718 244.38943406 416.55853444 242.1796875 421.35546875 C241.06275257 423.85932618 240.04955131 426.38013979 239.0625 428.9375 C236.76243862 434.81543463 233.88965087 440.3940773 231 446 C230.34 446 229.68 446 229 446 C228.59056152 447.32269897 228.59056152 447.32269897 228.17285156 448.67211914 C227.08497623 451.75888615 225.82991132 454.39688404 224.234375 457.24609375 C223.68120605 458.23657715 223.12803711 459.22706055 222.55810547 460.24755859 C221.96143066 461.30023926 221.36475586 462.35291992 220.75 463.4375 C220.12883301 464.53916504 219.50766602 465.64083008 218.86767578 466.77587891 C212.4957299 478.00585156 205.81188931 489.03277653 199 500 C198.51917969 500.77907715 198.03835938 501.5581543 197.54296875 502.36083984 C192.48111579 510.55426874 187.26318366 518.63480029 181.91015625 526.640625 C181.46124023 527.31214096 181.01232422 527.98365692 180.54980469 528.67552185 C178.29489641 532.04544912 176.03413842 535.41127446 173.76513672 538.77172852 C172.92543323 540.02098097 172.0857513 541.27024792 171.24609375 542.51953125 C170.86219986 543.08444275 170.47830597 543.64935425 170.08277893 544.23138428 C167.75365523 547.70389244 165.83990115 551.25008407 164 555 C161.30301807 558.6858753 158.22390331 561.77609669 155 565 C153.42471915 566.65459187 151.86330532 568.32244616 150.3125 570 C149.54550781 570.825 148.77851562 571.65 147.98828125 572.5 C146.02488429 574.9687113 145.11893825 577.08487141 144 580 C142.62376083 581.14127151 141.24179495 582.27652891 139.828125 583.37109375 C136.59793381 586.24927693 134.05894317 589.72303997 131.36328125 593.09375 C128.40265565 596.73458545 125.27517347 600.1985551 122.1171875 603.66796875 C119.64579486 606.39014846 117.23137786 609.15806503 114.8203125 611.93359375 C112.70212607 614.33814444 110.5369237 616.69722704 108.375 619.0625 C104.92830339 622.87448753 101.87044448 626.74063077 99 631 C100.22976563 631.26941406 101.45953125 631.53882813 102.7265625 631.81640625 C108.62437033 633.12767092 114.49977407 634.52900683 120.375 635.9375 C121.43460938 636.18951172 122.49421875 636.44152344 123.5859375 636.70117188 C128.40787568 637.8564279 133.17567557 639.05250184 137.91796875 640.5 C146.09148266 642.75544803 154.56527545 643.603433 162.95727539 644.67993164 C165.90038696 645.05773584 168.841834 645.44677602 171.78320312 645.83789062 C177.51798472 646.59379901 183.25693957 647.30993181 189 648 C189.87105377 648.10524994 190.74210754 648.21049988 191.63955688 648.31893921 C204.06804992 649.78779206 216.30399337 650.28607766 228.8125 650.1875 C230.67154794 650.1798735 232.53059755 650.17264246 234.38964844 650.16577148 C250.51085375 650.08695715 266.63107208 649.83398987 282.75 649.5625 C283.95516266 649.54303314 285.16032532 649.52356628 286.40200806 649.50350952 C289.84624386 649.44618362 293.29029656 649.38245293 296.734375 649.31640625 C297.75651596 649.29967865 298.77865692 649.28295105 299.83177185 649.26571655 C304.5568892 649.16763232 309.13355701 648.90804127 313.82089233 648.25175476 C318.8133929 647.67496555 323.85276221 647.56976299 328.87109375 647.3515625 C331.41082931 647.23223863 333.9505422 647.11243128 336.49023438 646.9921875 C340.45220053 646.80751234 344.41421011 646.62601618 348.37670898 646.453125 C362.82899915 645.81662752 376.83063772 644.99489506 391 642 C392.67624093 641.71743841 394.35437997 641.44560264 396.03515625 641.19140625 C397.06286133 641.02995117 397.06286133 641.02995117 398.11132812 640.86523438 C399.41533942 640.6629103 400.72004505 640.46501322 402.02539062 640.27148438 C414.72910965 638.24798907 427.01406042 634.45269455 439.2890625 630.69921875 C440.26791696 630.4001018 440.26791696 630.4001018 441.26654625 630.09494209 C447.41377561 628.21505008 453.55884673 626.32820284 459.69921875 624.42602539 C477.8893483 618.79639911 496.04587047 613.94349182 514.63293457 609.77047729 C522.21824098 608.0347503 529.74765993 606.07654552 537.27368164 604.10180664 C539.86073007 603.42488013 542.45075644 602.76022493 545.04101562 602.09570312 C559.10955934 598.44399697 572.61266049 593.75132648 586.15625 588.484375 C591.44495485 586.43353279 596.75405525 584.43655207 602.0625 582.4375 C603.05580322 582.06133545 604.04910645 581.6851709 605.07250977 581.29760742 C610.19088759 579.37299613 615.32632408 577.50498394 620.49609375 575.72265625 C621.93553345 575.22584351 621.93553345 575.22584351 623.40405273 574.71899414 C626 574 626 574 630 574 C630 577.82971736 629.97607016 578.94773163 628 582 C624.60344471 585.00491893 620.74393289 587.44710635 617 590 C616.25186035 590.5141748 615.5037207 591.02834961 614.73291016 591.55810547 C583.01457332 613.29255353 583.01457332 613.29255353 567.75390625 618.6328125 C562.50480354 620.54455646 557.39242111 622.75766448 552.25 624.9375 C544.45185227 628.22299868 536.64630724 631.34884493 528.61621094 634.02319336 C525.32131261 635.12941185 522.16136386 636.36186879 519.015625 637.828125 C512.2749418 640.87896725 505.20747122 643.06669187 498.1875 645.375 C497.08461136 645.7396637 497.08461136 645.7396637 495.95944214 646.11169434 C478.86342572 651.76369221 461.7050952 656.91623282 444.27954102 661.46582031 C435.42962764 663.79849505 426.71055728 666.42803281 418.25 669.9375 C414.1562557 671.61335381 410.001695 672.97005734 405.7734375 674.2578125 C399.93269709 676.05971427 394.12431859 677.93879513 388.3359375 679.90234375 C387.61044708 680.14835327 386.88495667 680.39436279 386.13748169 680.64782715 C385.40391449 680.89657593 384.67034729 681.14532471 383.91455078 681.40161133 C328.87306265 700.06226646 274.19976727 705.56481657 216.46240234 708.6940918 C214.98784045 708.77492201 213.51328186 708.85581269 212.03872681 708.93676758 C209.26322651 709.08912252 206.4875048 709.23573244 203.71151733 709.37890625 C202.47479279 709.4461792 201.23806824 709.51345215 199.96386719 709.58276367 C198.88014832 709.63953781 197.79642944 709.69631195 196.67987061 709.75480652 C193.90064059 709.90618973 193.90064059 709.90618973 191 711 C180.87732313 712.24183724 170.66528942 712.17895552 160.484375 712.203125 C159.66800819 712.20595238 158.85164139 712.20877975 158.01053619 712.21169281 C153.69207959 712.22656736 149.3736554 712.23587137 145.05517578 712.24023438 C140.65042649 712.24571027 136.24598759 712.26975395 131.8413353 712.29820633 C128.40245754 712.3170331 124.96365175 712.32204876 121.52472687 712.32357025 C119.90318348 712.32655095 118.2816399 712.33441893 116.66014862 712.34775543 C105.42542228 712.43359147 95.00509139 711.20741403 84 709 C81.48184107 708.56551331 78.96000687 708.15893622 76.4375 707.75 C65.40967219 705.69547015 54.71683742 702.27115892 44 699 C43.8443457 700.30988892 43.8443457 700.30988892 43.68554688 701.64624023 C42.40218935 711.88692318 40.54208292 721.94897256 38.5 732.0625 C37.88087927 735.13583079 37.26566011 738.20988462 36.65625 741.28515625 C36.50921631 742.02585358 36.36218262 742.7665509 36.21069336 743.5296936 C35.08215148 749.3246984 34.2278954 755.12084142 33.50976562 760.98217773 C32.97445723 764.15121369 32.04305119 766.963094 31 770 C30.39540968 772.41018191 29.81949849 774.82766013 29.265625 777.25 C28.93864498 778.66735657 28.61148973 780.08467273 28.28417969 781.50195312 C28.03106018 782.60422241 28.03106018 782.60422241 27.77282715 783.72875977 C25.24944808 794.69070023 22.68548554 805.63986379 19.75 816.5 C19.52860352 817.33273437 19.30720703 818.16546875 19.07910156 819.0234375 C16.86104766 827.06511881 13.72546756 834.54906487 10 842 C9.42968217 843.45529376 8.86823396 844.91407491 8.3125 846.375 C0.90408026 865.06442252 -10.49208942 888.3347189 -28.43359375 899.0546875 C-35.38280993 901.61436834 -42.60156978 901.45814999 -49.38671875 898.546875 C-63.22712628 890.00298478 -69.25921996 875.19472466 -74.125 860.3125 C-74.47119385 859.26247803 -74.8173877 858.21245605 -75.17407227 857.13061523 C-79.89119604 842.50966599 -82.14950014 828.17003297 -82.16796875 812.828125 C-82.17206757 811.7635054 -82.17616638 810.6988858 -82.1803894 809.602005 C-82.18993309 806.15130371 -82.18991787 802.70071257 -82.1875 799.25 C-82.18789276 798.07525116 -82.18828552 796.90050232 -82.18869019 795.69015503 C-82.18252949 780.2922185 -81.94161076 764.93669756 -81.0625 749.5625 C-81.01902435 748.79627319 -80.97554871 748.03004639 -80.93075562 747.24060059 C-80.23603252 735.34999228 -80.23603252 735.34999228 -79.4934082 731.10253906 C-78.88159961 727.25550118 -78.71789861 723.42878032 -78.5703125 719.54296875 C-78.4988509 717.86936077 -78.42680662 716.19577758 -78.35424805 714.5222168 C-78.31729828 713.65172699 -78.28034851 712.78123718 -78.24227905 711.8843689 C-77.57890427 696.62985602 -76.64444548 681.52283767 -74.48144531 666.39648438 C-74.01747156 663.12325781 -73.57741631 659.84770898 -73.14292908 656.57048035 C-72.72879566 653.46121711 -72.30477987 650.35335326 -71.87832642 647.24575806 C-71.67246025 645.74115868 -71.46872218 644.23626612 -71.26742554 642.73104858 C-70.02196329 633.48381564 -68.29695293 624.55154541 -65.88867188 615.53320312 C-65.05421657 612.21555557 -64.44313779 608.9439878 -63.9375 605.5625 C-63.41325994 602.12734804 -62.75439343 599.01234747 -61.5625 595.75 C-60.18554666 591.9108099 -59.43969497 588.14469464 -58.75 584.125 C-57.37439897 576.16552882 -55.40201889 568.37851268 -53.375 560.5625 C-53.06143555 559.34643066 -52.74787109 558.13036133 -52.42480469 556.87744141 C-50.13014713 548.13014713 -50.13014713 548.13014713 -49 547 C-48.9175 545.824375 -48.835 544.64875 -48.75 543.4375 C-48.29703076 539.00537025 -47.17178507 534.91337552 -45.8125 530.6875 C-45.59078125 529.99817383 -45.3690625 529.30884766 -45.140625 528.59863281 C-44.66812904 527.13825075 -44.19429864 525.67829988 -43.71923828 524.21875 C-36.32051078 501.39470535 -29.86581794 477.81613842 -25 454.3125 C-24.28290288 451.03514205 -23.30408235 448.09719558 -22 445 C-21.31673144 442.67053091 -20.65480873 440.33752077 -20 438 C-19.4363477 436.01948862 -18.87253073 434.03902409 -18.30859375 432.05859375 C-17.68463062 429.85163747 -17.06093947 427.64460427 -16.4375 425.4375 C-16.12103516 424.32697266 -15.80457031 423.21644531 -15.47851562 422.07226562 C-15.17494141 420.99525391 -14.87136719 419.91824219 -14.55859375 418.80859375 C-14.28329834 417.83720459 -14.00800293 416.86581543 -13.72436523 415.86499023 C-12.98080785 412.92409171 -12.45763908 409.99754987 -12 407 C-11.34 407 -10.68 407 -10 407 C-9.89478027 406.22180908 -9.78956055 405.44361816 -9.68115234 404.6418457 C-8.48986422 396.3356109 -6.72835227 388.30625844 -4.625 380.1875 C-4.0338059 377.86850189 -3.44266049 375.54949136 -2.8515625 373.23046875 C-2.54734375 372.05532715 -2.243125 370.88018555 -1.9296875 369.66943359 C-1.29592427 367.1679994 -0.68754935 364.66002822 -0.1015625 362.14697266 C1.52761426 355.19092073 3.44703777 348.54514012 6.015625 341.875 C16.89128865 312.94260652 18.64697705 281.48093143 14.48291016 250.82885742 C13.94394999 246.55559543 13.81065562 242.37937958 13.75390625 238.078125 C13.72225943 236.32942246 13.6903472 234.58072472 13.65820312 232.83203125 C13.64281494 231.92146973 13.62742676 231.0109082 13.61157227 230.07275391 C13.34430255 214.69876141 12.88224225 199.35146364 12 184 C11.95811554 183.26140747 11.91623108 182.52281494 11.87307739 181.76184082 C11.50997767 175.433303 11.13536545 169.11366486 10.46875 162.80859375 C9.52825085 152.99029701 9.62854858 143.06959877 9.44775391 133.21459961 C9.39601014 130.46719571 9.33883461 127.71994296 9.28125 124.97265625 C9.26088684 123.71014793 9.26088684 123.71014793 9.2401123 122.4221344 C9.22339478 121.6370903 9.20667725 120.8520462 9.18945312 120.04321289 C9.17066101 119.01376305 9.17066101 119.01376305 9.15148926 117.96351624 C8.99108258 115.8844175 8.56024744 114.00532931 8 112 C7.12848867 115.84234887 6.79028866 119.53564777 6.60546875 123.46875 C6.53972656 124.74540527 6.47398437 126.02206055 6.40625 127.33740234 C6.35404297 128.3521463 6.35404297 128.3521463 6.30078125 129.38739014 C4.17738386 168.98714982 -3.90465733 208.12083939 -13.28662109 246.59448242 C-14.53522578 251.73275606 -15.45415371 256.73779641 -16 262 C-16.66 262 -17.32 262 -18 262 C-18.103125 263.093125 -18.20625 264.18625 -18.3125 265.3125 C-19.20127312 272.41016703 -21.43411481 279.19348898 -23.5625 286 C-25.16785498 291.25542525 -26.12434392 296.58123412 -27 302 C-27.66 302 -28.32 302 -29 302 C-29.309375 303.8871875 -29.309375 303.8871875 -29.625 305.8125 C-30.68765984 311.11072602 -32.20138638 316.22342077 -33.8125 321.375 C-34.04855957 322.14046143 -34.28461914 322.90592285 -34.52783203 323.69458008 C-36.26870631 329.16074194 -38.38084826 334.40919918 -40.61938477 339.68896484 C-43.22980695 345.94936195 -45.62925602 352.29413741 -48.0625 358.625 C-48.84315812 360.6529109 -49.62430459 362.68063153 -50.40611267 364.70809937 C-51.11291692 366.54152531 -51.81834852 368.37548026 -52.52368164 370.20947266 C-53.01495885 371.4733043 -53.5071273 372.73678972 -54 374 C-54.28996857 374.7478476 -54.57993713 375.49569519 -54.87869263 376.26620483 C-57.4837969 382.89506229 -60.36879843 389.37282884 -63.359375 395.8359375 C-63.87820251 396.95809662 -64.39703003 398.08025574 -64.93157959 399.23641968 C-70.82029623 411.88377453 -77.06144642 424.35380484 -83.33740234 436.81213379 C-84.87116046 439.8589291 -86.4002358 442.90807255 -87.9296875 445.95703125 C-90.25878574 450.59917366 -92.59086228 455.23980833 -94.92504883 459.87939453 C-97.15314293 464.31000626 -99.3700785 468.74596213 -101.57862854 473.18634033 C-104.08098882 478.2157556 -106.60960683 483.21739243 -109.34277344 488.12646484 C-114.10569527 496.71459329 -117.87310846 505.63232204 -121.62548828 514.69824219 C-129.20052694 532.86049282 -138.10563572 550.45311215 -147 568 C-147.66 568 -148.32 568 -149 568 C-149.26844727 568.88252441 -149.53689453 569.76504883 -149.81347656 570.67431641 C-150.93857118 573.82782236 -152.2404028 576.36436252 -153.984375 579.2109375 C-154.58169434 580.19481445 -155.17901367 581.17869141 -155.79443359 582.19238281 C-156.76243896 583.76777832 -156.76243896 583.76777832 -157.75 585.375 C-159.13447597 587.64745022 -160.51769378 589.92059926 -161.8984375 592.1953125 C-162.24842804 592.77091919 -162.59841858 593.34652588 -162.95901489 593.9395752 C-165.10859346 597.48733458 -167.19324811 601.06419635 -169.2265625 604.6796875 C-176.50016977 617.5869309 -184.45989237 629.9160131 -192.75 642.1875 C-193.28179871 642.97668823 -193.81359741 643.76587646 -194.36151123 644.57897949 C-200.28482244 653.35112241 -206.34136329 661.95400299 -212.87695312 670.28198242 C-215.56491639 673.72323071 -218.11997383 677.2503905 -220.671875 680.79296875 C-223.13821345 684.19039134 -225.63861586 687.5609304 -228.14355469 690.92993164 C-229.99355166 693.42878999 -231.82619302 695.93963912 -233.65625 698.453125 C-235.54263001 701.04214991 -237.45081901 703.55639055 -239.46875 706.046875 C-245.738267 714.1972471 -247.49898181 723.43574863 -249.67578125 733.29296875 C-250.61439201 737.53115191 -251.76124009 741.58614164 -253.24291992 745.6652832 C-254.12292286 748.37907492 -254.80203268 751.12923528 -255.48072815 753.8992157 C-256.81690095 759.30488297 -258.31623737 764.6701315 -259.77636719 770.04345703 C-260.17340076 771.50691113 -260.56892489 772.97077564 -260.96289062 774.43505859 C-264.08867421 786.05220576 -267.49275722 797.43585865 -272.0703125 808.578125 C-272.99533653 810.98785146 -273.73383842 813.39241869 -274.4375 815.875 C-275.83375052 820.71281937 -277.70874513 825.2585643 -279.69140625 829.8828125 C-280.98258313 832.95851146 -282.15418492 836.05965929 -283.3125 839.1875 C-285.89598112 845.98656619 -288.984981 852.50442621 -292.1328125 859.0546875 C-293.26745184 861.41932356 -294.32028718 863.77057328 -295.328125 866.1953125 C-297.76332402 871.95138573 -300.74819586 877.45643318 -303.625 883 C-303.93547272 883.59993774 -304.24594543 884.19987549 -304.56582642 884.81799316 C-308.83679973 893.05910693 -313.27257412 901.13516514 -318.23046875 908.984375 C-319.7750134 911.61657914 -320.93296455 914.21732482 -322.09448242 917.03027344 C-324.05627066 921.29765212 -326.6091428 925.25251151 -329.0625 929.25 C-329.66884277 930.2407251 -330.27518555 931.2314502 -330.89990234 932.25219727 C-344.04020569 953.53697506 -357.57028234 975.19333336 -374.7109375 993.50390625 C-376.879858 995.86899191 -378.88991417 998.2923396 -380.875 1000.8125 C-407.97594573 1035.07930215 -407.97594573 1035.07930215 -425 1044 C-426.21108664 1044.72414091 -427.42061281 1045.45089544 -428.62890625 1046.1796875 C-439.69149878 1052.59041662 -449.41414139 1054.1768187 -461.8671875 1051.01953125 C-470.56287647 1047.83111196 -476.44114934 1043.09768451 -481 1035 C-485.75747104 1023.06028236 -485.31300652 1008.95863361 -481.78125 996.77734375 C-481.02778339 994.09876997 -480.54956973 991.49745603 -480.125 988.75 C-477.07187714 971.72944108 -469.61720281 955.85778661 -463 940 C-462.56631104 938.9486084 -462.13262207 937.8972168 -461.68579102 936.81396484 C-454.57613299 919.60655138 -446.13686945 903.2139822 -437 887 C-436.58669434 886.26604004 -436.17338867 885.53208008 -435.74755859 884.77587891 C-424.14996381 864.32685307 -411.26255865 844.68182558 -397 826 C-395.90993124 824.56136839 -394.82008526 823.12256793 -393.73046875 821.68359375 C-389.31690773 815.87358043 -384.86656545 810.09404252 -380.35546875 804.359375 C-374.65948918 797.11111441 -369.09997044 789.90149346 -364.09765625 782.1484375 C-361.99203914 778.98805129 -359.77993866 775.9347114 -357.53027344 772.87646484 C-351.4827956 764.65082463 -345.86449353 756.23814734 -340.44067383 747.58959961 C-336.11069023 740.69744625 -331.61925874 733.93137058 -327.0625 727.1875 C-319.38453427 715.79194031 -312.3066644 704.1012179 -305.35009766 692.25463867 C-304.2829271 690.47248314 -303.15224614 688.72836922 -302 687 C-301.61641403 685.02442966 -301.61641403 685.02442966 -301.5 682.875 C-301.27906039 679.85917427 -300.80146769 677.01388346 -300.12109375 674.07421875 C-298.67204678 667.74231467 -297.64274124 661.34063303 -296.5625 654.9375 C-292.06631271 628.62423183 -292.06631271 628.62423183 -289.15234375 615.59765625 C-288.97794769 614.81482269 -288.80355164 614.03198914 -288.62387085 613.22543335 C-287.6148123 608.70842213 -286.58835837 604.19576291 -285.54528809 599.68649292 C-280.5083219 577.90786023 -276.35949165 556.09911213 -273 534 C-272.84192871 532.98389648 -272.68385742 531.96779297 -272.52099609 530.92089844 C-270.00683281 514.52418139 -268.76557117 497.96584414 -267.35693359 481.44555664 C-267.27439331 480.48214859 -267.19185303 479.51874054 -267.10681152 478.52613831 C-266.95149727 476.70650684 -266.79798296 474.88672048 -266.64660645 473.0667572 C-266.24457742 468.34748468 -265.6849228 463.68844227 -265 459 C-264.85339012 456.22798721 -264.73017317 453.46083082 -264.625 450.6875 C-264.38091272 445.27819294 -263.93357641 440.02814088 -262.92678833 434.7051239 C-261.46851802 426.95700058 -260.69545224 419.41110695 -260.4375 411.52734375 C-260.39822388 410.44415863 -260.35894775 409.36097351 -260.31848145 408.2449646 C-259.86421626 395.11677173 -259.65725409 381.9835088 -259.44775391 368.84960938 C-259.2625316 357.46438491 -259.02065864 346.10380606 -258.36192322 334.73524475 C-257.93643537 327.287684 -257.76542277 319.84197299 -257.61184692 312.38464355 C-257.32018908 298.6599504 -256.83115448 284.95632109 -256.0625 271.25 C-256.02488556 270.56559845 -255.98727112 269.8811969 -255.94851685 269.17605591 C-255.55778064 262.15140232 -255.09974802 255.13542132 -254.52734375 248.12304688 C-253.31647021 233.26316449 -252.49773444 218.42942808 -251.99462891 203.52880859 C-251.87409715 199.97336764 -251.74426519 196.41835103 -251.61328125 192.86328125 C-251.24954915 182.72304149 -250.92241019 172.58489511 -250.8828125 162.4375 C-250.87518387 161.33027588 -250.87518387 161.33027588 -250.86740112 160.20068359 C-250.82413754 156.47549189 -250.82413754 156.47549189 -252 153 C-252.19110352 153.67466309 -252.38220703 154.34932617 -252.57910156 155.04443359 C-253.46392147 158.15620997 -254.35690969 161.26558762 -255.25 164.375 C-255.55035156 165.43589844 -255.85070312 166.49679687 -256.16015625 167.58984375 C-257.85219946 173.45799361 -259.75014523 179.11623312 -262.08935547 184.75732422 C-263.37312229 187.91890118 -264.40043149 191.12384406 -265.4375 194.375 C-267.63128597 201.07772342 -270.17970345 207.53769088 -273 214 C-273.78793544 215.81242392 -274.5756773 217.624932 -275.36328125 219.4375 C-276.65891745 222.41855001 -277.9558149 225.39899569 -279.25854492 228.37695312 C-281.34306052 233.14858764 -283.39071568 237.93023879 -285.37109375 242.74609375 C-287.29862946 247.39432464 -289.32408606 251.98794767 -291.41015625 256.56640625 C-291.70739594 257.21882294 -292.00463562 257.87123962 -292.31088257 258.54342651 C-293.53473336 261.22524143 -294.76090599 263.90596828 -295.99145508 266.5847168 C-299.299439 273.79379821 -302.42363414 280.97616861 -305.03979492 288.47216797 C-306.35823191 291.94307989 -308.0302948 295.18519725 -309.73242188 298.48095703 C-311.94377881 302.87556042 -313.8214744 307.41356821 -315.75 311.9375 C-317.49256672 315.9615849 -319.2447353 319.98143944 -321 324 C-321.35545898 324.81678223 -321.71091797 325.63356445 -322.07714844 326.47509766 C-327.11340721 337.92978303 -333.17873349 348.60588686 -339.63647461 359.31616211 C-344.69035536 367.70930988 -349.49356546 376.21344153 -354.1875 384.8125 C-364.60105117 403.83676063 -375.51826819 422.25128868 -388 440 C-389.56646622 442.24727884 -391.12708532 444.49850536 -392.6875 446.75 C-393.75871094 448.29300781 -393.75871094 448.29300781 -394.8515625 449.8671875 C-397.12366892 453.18033177 -399.34671551 456.52413572 -401.5625 459.875 C-405.95346571 466.51445822 -410.49950551 473.04039661 -415.0625 479.5625 C-419.35912712 485.70669163 -423.61749201 491.85039391 -427.625 498.1875 C-432.90952124 506.54371236 -438.63379595 514.58906387 -444.34570312 522.65673828 C-445.81823554 524.74253611 -447.27894964 526.83584502 -448.734375 528.93359375 C-454.0024028 536.48539504 -459.68669801 543.52823039 -465.70800781 550.49023438 C-467.66034238 552.77164726 -469.54767782 555.10421774 -471.4375 557.4375 C-474.97140231 561.77225067 -478.55946276 566.05652246 -482.1875 570.3125 C-482.67468506 570.88734131 -483.16187012 571.46218262 -483.66381836 572.05444336 C-486.94579061 575.88776472 -490.31160399 579.5515845 -494 583 C-494.66 583 -495.32 583 -496 583 C-496 583.66 -496 584.32 -496 585 C-497.13346275 586.1846927 -498.27601299 587.36179087 -499.45849609 588.49755859 C-502.3586211 591.32419294 -505.0651228 594.33847184 -507.8125 597.3125 C-508.40998047 597.95767578 -509.00746094 598.60285156 -509.62304688 599.26757812 C-511.08291428 600.84423492 -512.54158093 602.42200338 -514 604 C-515.32 603.67 -516.64 603.34 -518 603 C-516.54562723 599.67358844 -514.70099367 597.47709549 -512.1875 594.875 C-505.99469192 588.12464007 -500.83412108 580.66173932 -495.55615234 573.18945312 C-494.16533374 571.23261892 -492.75580196 569.29229087 -491.33203125 567.359375 C-485.17528261 558.96995926 -479.73380726 550.22871163 -474.38671875 541.30566406 C-472.58369575 538.30782089 -470.75491785 535.32617709 -468.92456055 532.3449707 C-467.07818226 529.33562893 -465.24106714 526.32068608 -463.40478516 523.30517578 C-462.46848726 521.76876203 -461.53066154 520.23327829 -460.59130859 518.69873047 C-453.67307572 507.38510574 -447.11653378 495.90518013 -440.71899414 484.28930664 C-436.48787714 476.62355 -432.13505055 469.04197491 -427.6875 461.5 C-423.17229084 453.83548542 -418.88236642 446.10724271 -414.81591797 438.1965332 C-411.54186013 431.88548625 -407.95165504 425.7936064 -404.3125 419.6875 C-398.19117426 409.37252182 -392.7839639 398.80252586 -387.49243164 388.04980469 C-375.25539602 363.20830418 -375.25539602 363.20830418 -368.421875 352.53515625 C-367.12028695 350.21446766 -366.19880756 348.01049716 -365.25 345.53125 C-362.19845361 337.69933435 -358.07315628 330.39909517 -354.1328125 322.98828125 C-351.03942823 317.11350639 -348.20047705 311.29901543 -345.83203125 305.09570312 C-344.77213621 302.4260614 -343.44412103 299.9801209 -342 297.5 C-339.57892298 293.19315948 -337.68676979 288.88552717 -335.93359375 284.2734375 C-335.07244591 282.17641639 -334.10122374 280.31600337 -332.9375 278.375 C-331.15531376 275.27054654 -329.96639462 272.38057175 -328.78125 269.03125 C-327.9817719 266.95260695 -327.03295132 265.03449798 -326 263.0625 C-324.56969546 260.2936463 -323.48801311 257.60023707 -322.5625 254.625 C-321.21988284 250.36364988 -319.31741937 246.57816311 -317.26171875 242.62109375 C-315.53167077 239.02709315 -314.25400514 235.32283841 -312.9921875 231.54296875 C-312 229 -312 229 -310.5078125 226.515625 C-308.94643486 223.91063226 -307.97720757 221.43304722 -307 218.5625 C-306.02583803 215.70901724 -305.04468131 213.08354013 -303.62109375 210.421875 C-300.73743409 204.33492112 -299.02188408 197.81335448 -297.04882812 191.38476562 C-294.18425156 182.20597791 -294.18425156 182.20597791 -292.09765625 177.8125 C-289.11961969 171.38949748 -287.22355762 164.5458961 -285.14065552 157.79351807 C-283.83107906 153.54998716 -282.50349264 149.31210443 -281.17578125 145.07421875 C-280.9090007 144.22178589 -280.64222015 143.36935303 -280.36735535 142.49108887 C-277.46841855 133.25674006 -274.4059982 124.07948883 -271.30712891 114.91064453 C-269.38134842 109.20104013 -267.52123979 103.49234495 -265.84008789 97.70605469 C-263.12220938 88.40881863 -258.87664179 78.94182789 -250 74 C-245.8685551 72.98290765 -242.83033006 73.51263236 -239.125 75.6875 C-236.88831659 78.12153783 -236.05801554 79.90152591 -235 83 C-234.54496094 83.70511719 -234.08992188 84.41023438 -233.62109375 85.13671875 C-231.57155726 88.75674344 -230.40354851 92.41005485 -229.1875 96.375 C-228.80609863 97.59848145 -228.80609863 97.59848145 -228.41699219 98.84667969 C-225.52819456 108.27869254 -223.08812825 117.83082869 -220.68261719 127.39550781 C-220.15849791 129.39525905 -219.58034668 131.38091137 -218.97924805 133.35888672 C-217.99109628 137.03310648 -217.45654537 140.52571517 -217.03515625 144.3046875 C-216.95631699 144.9869339 -216.87747772 145.6691803 -216.79624939 146.37210083 C-216.54611334 148.5391444 -216.30342535 150.70691447 -216.0625 152.875 C-215.74706196 155.70647059 -215.42587526 158.53716927 -215.09765625 161.3671875 C-215.01555908 162.08631821 -214.93346191 162.80544891 -214.84887695 163.54637146 C-214.35449732 167.67948806 -213.67431706 171.71221168 -212.81733704 175.789505 C-210.37853813 187.69561434 -210.4922575 199.6769213 -210.40356445 211.78930664 C-210.36494571 217.05960993 -210.29600835 222.32939038 -210.22894287 227.59939575 C-210.19632238 230.19042052 -210.1652548 232.78146535 -210.13580322 235.37252808 C-210.02591383 244.91942209 -209.82900406 254.45825213 -209.5 264 C-209.46438965 265.10947998 -209.4287793 266.21895996 -209.39208984 267.36206055 C-209.22982856 271.86427501 -208.96932147 276.31840346 -208.51708984 280.80078125 C-207.81203973 288.43789174 -207.63533791 296.08678774 -207.4453125 303.75 C-207.42437656 304.56245178 -207.40344063 305.37490356 -207.38187027 306.2119751 C-206.87953654 326.11576214 -206.84708472 346.01918192 -206.86962891 365.92822266 C-206.87529466 370.96436556 -206.87194159 376.00045524 -206.86619949 381.0365963 C-206.84554759 402.31216996 -206.98739229 423.57998325 -207.4140625 444.8515625 C-207.43134274 445.7925177 -207.44862297 446.7334729 -207.46642685 447.70294189 C-207.76900158 463.70559684 -208.96098929 479.51210534 -210.6652832 495.4206543 C-211.00810049 499.08662385 -211.20586811 502.74067245 -211.38671875 506.41796875 C-211.97909396 517.3393962 -213.72047637 528.12649153 -215.3125 538.9375 C-215.63003424 541.12787238 -215.94717098 543.31830242 -216.26391602 545.50878906 C-218.04087671 557.74352742 -219.85801229 569.97158006 -221.93286133 582.15991211 C-222.60419707 586.15164823 -223.21005821 589.93327303 -223 594 C-222.42894531 592.94425781 -221.85789062 591.88851562 -221.26953125 590.80078125 C-216.61778353 582.27713189 -211.78197301 573.91613796 -206.625 565.6875 C-196.53321501 549.53181095 -187.38814198 532.94176591 -178.52209473 516.09136963 C-173.88434808 507.28468031 -169.10301053 498.61135404 -164 490.0625 C-155.28752642 475.4196342 -147.66732951 460.20732437 -140 445 C-139.15332764 443.32139893 -139.15332764 443.32139893 -138.28955078 441.60888672 C-135.54849714 436.16350905 -132.82762027 430.70846292 -130.11962891 425.24658203 C-129.06294249 423.12629673 -127.99376781 421.01298375 -126.91796875 418.90234375 C-126.60037598 418.27674561 -126.2827832 417.65114746 -125.95556641 417.0065918 C-125.15142694 415.42491234 -124.3435244 413.84514743 -123.53515625 412.265625 C-122.28924148 409.61528214 -121.2057912 406.9935782 -120.15234375 404.265625 C-117.62660598 397.85658795 -114.34480534 391.90308779 -111.06640625 385.85546875 C-108.31901321 380.7183765 -105.92345517 375.59648053 -103.87084961 370.1418457 C-102.84485147 367.61841377 -101.4704002 365.36413445 -100.06640625 363.03515625 C-98.08394415 359.2517762 -96.71734333 355.20591154 -95.22265625 351.2109375 C-93.64247231 347.06106147 -91.84285947 343.03780997 -90 339 C-89.35376271 337.52100978 -88.70793628 336.04183996 -88.0625 334.5625 C-86.69854901 331.46840107 -85.20719244 328.48746241 -83.625 325.5 C-80.98765623 320.3064615 -79.09750865 314.92150444 -77.23095703 309.41601562 C-75.96080101 305.67518137 -74.61345063 301.99445039 -73.12109375 298.3359375 C-70.56223763 292.01127487 -68.34343562 285.57549544 -66.125 279.125 C-65.90656433 278.49226166 -65.68812866 277.85952332 -65.46307373 277.20761108 C-62.41754271 268.37445912 -59.51695463 259.51204395 -56.97705078 250.51806641 C-55.88757888 246.71044291 -54.65269344 243.04846009 -53.14331055 239.38500977 C-51.03059596 234.14999849 -49.16139276 228.85532998 -47.35546875 223.5078125 C-47.02458755 222.53175049 -46.69370636 221.55568848 -46.35279846 220.55004883 C-45.29220829 217.41017997 -44.23849107 214.26809436 -43.1875 211.125 C-42.82861694 210.05264099 -42.46973389 208.98028198 -42.09997559 207.87542725 C-36.60320041 191.39095393 -31.69822718 174.98901277 -28 158 C-27.61658088 156.28239669 -27.23250151 154.56494059 -26.84765625 152.84765625 C-26.22036805 150.04074008 -25.61164997 147.23272028 -25.01953125 144.41796875 C-24.46050896 141.84228368 -23.80911959 139.32882833 -23.08764648 136.79199219 C-20.27829521 126.88314732 -18.68907181 117.08796553 -17.4375 106.875 C-17.22390913 105.1946766 -17.00978957 103.51442033 -16.79516602 101.83422852 C-15.39081945 90.72272839 -14.19355591 79.59786487 -13.09350586 68.45214844 C-11.26583659 50.22939965 -9.12926931 31.86357809 -5 14 C-4.7421875 12.85015625 -4.484375 11.7003125 -4.21875 10.515625 C-2.28719325 2.28719325 -2.28719325 2.28719325 0 0 Z " fill="#020202" transform="translate(1070,201)"/>
<path d="M0 0 C6.47631282 3.84479837 12.37265592 8.34936627 18.10791016 13.21679688 C19.70269705 14.56153171 21.32578332 15.8632602 22.95605469 17.16455078 C48.13102416 38.35267963 59.502333 81.44261552 62.55299377 112.94889832 C62.875048 117.00377252 62.94637244 121.0436487 62.96777344 125.10986328 C62.97347351 125.98288589 62.97917358 126.85590851 62.98504639 127.75538635 C62.99442377 129.59317848 63.00100114 131.43098687 63.00488281 133.26879883 C63.01451645 136.01366332 63.04558046 138.75775405 63.07714844 141.50244141 C63.14368954 152.78766076 62.18927621 163.49004457 60.12794495 174.58294678 C59.56895386 177.70769965 59.13593157 180.84430233 58.70214844 183.98876953 C58.30513859 186.85480253 57.89975692 189.28346621 56.80395508 191.96240234 C55.78889806 194.55190649 55.16548091 196.97861239 54.60839844 199.69970703 C50.8205104 217.4634969 45.54836306 234.4185472 39.76464844 251.61376953 C39.05874682 253.75173343 38.35300759 255.88975096 37.64746094 258.02783203 C36.34144514 261.94816438 34.9679362 265.82853921 33.49267578 269.68798828 C32.12447281 273.30716503 30.85836404 276.96309595 29.57714844 280.61376953 C29.30451172 281.38849609 29.031875 282.16322266 28.75097656 282.96142578 C28.08813762 284.84528382 27.42628758 286.72948977 26.76464844 288.61376953 C26.10464844 288.61376953 25.44464844 288.61376953 24.76464844 288.61376953 C24.60609375 289.15904297 24.44753906 289.70431641 24.28417969 290.26611328 C22.70700554 295.36360985 20.67515156 299.73191121 17.99902344 304.33642578 C16.81292537 306.52470165 15.93454545 308.6551937 15.07714844 310.98876953 C11.81588167 319.55812322 7.10728819 327.55631166 2.76464844 335.61376953 C2.10464844 335.61376953 1.44464844 335.61376953 0.76464844 335.61376953 C0.59449219 336.21705078 0.42433594 336.82033203 0.24902344 337.44189453 C-1.22644974 342.3078167 -2.48434479 345.09720068 -6.23535156 348.61376953 C-6.94711828 350.30628457 -7.65746559 351.99942983 -8.35644531 353.69726562 C-9.79421094 356.83239345 -11.73864042 359.56310209 -13.73535156 362.36376953 C-14.1259375 362.92708984 -14.51652344 363.49041016 -14.91894531 364.07080078 C-16.47793509 366.29118016 -18.01497161 368.39389504 -19.93847656 370.31298828 C-21.71312591 372.09298296 -22.29536586 374.20181325 -23.21582031 376.50048828 C-25.39209191 381.01145737 -28.65851382 387.32535066 -33.23535156 389.61376953 C-33.64140625 390.67337891 -33.64140625 390.67337891 -34.05566406 391.75439453 C-35.54959655 395.37544943 -37.75968951 398.26826606 -40.11035156 401.36376953 C-41.1092458 402.6998902 -42.10658478 404.03717471 -43.10253906 405.37548828 C-43.61913086 406.0694873 -44.13572266 406.76348633 -44.66796875 407.47851562 C-47.25325677 411.00046718 -49.73744646 414.59212394 -52.23535156 418.17626953 C-59.74685196 428.88726961 -67.82782111 439.05630501 -76.3215332 449.00146484 C-79.01902299 452.16134004 -81.65606617 455.35683075 -84.23535156 458.61376953 C-87.22517865 462.3859246 -90.30143105 466.0754088 -93.42285156 469.73876953 C-114.2836882 491.91167191 -114.2836882 491.91167191 -129.23535156 517.61376953 C-129.89535156 517.61376953 -130.55535156 517.61376953 -131.23535156 517.61376953 C-131.23535156 518.27376953 -131.23535156 518.93376953 -131.23535156 519.61376953 C-132.22535156 519.94376953 -133.21535156 520.27376953 -134.23535156 520.61376953 C-134.34198367 515.36510034 -134.23427866 510.20689918 -133.74194336 504.97851562 C-133.02699404 495.9785467 -133.07103314 486.98774008 -133.06738281 477.96533203 C-133.06415654 476.06277442 -133.06079153 474.16021705 -133.05729675 472.25765991 C-133.05133644 468.27544585 -133.04945322 464.29325336 -133.05004883 460.31103516 C-133.05012946 456.29503819 -133.04328448 452.27915682 -133.02954102 448.26318359 C-132.95340978 425.68865236 -133.25305589 403.32043162 -135.00234985 380.80725098 C-135.34605761 376.09645141 -135.56683337 371.38349187 -135.76269531 366.66455078 C-135.7973288 365.85284927 -135.83196228 365.04114777 -135.86764526 364.20484924 C-135.93563463 362.59953578 -136.0029609 360.9941941 -136.0696106 359.38882446 C-136.65077508 345.52659981 -137.50381647 331.73943287 -138.79785156 317.92626953 C-140.31776272 301.65685338 -140.71949445 285.40990902 -140.94458008 269.07592773 C-141.11915816 256.50537003 -141.60955208 244.00658321 -142.4453125 231.46240234 C-143.61733673 212.32385631 -138.27649619 196.50204684 -131.16845703 178.93823242 C-129.77879101 175.47642966 -128.47259684 171.98511935 -127.17285156 168.48876953 C-126.68196615 167.17366536 -126.19108073 165.8585612 -125.70019531 164.54345703 C-125.47250961 163.93142426 -125.24482391 163.31939148 -125.01023865 162.68881226 C-124.28606817 160.74958173 -123.5531503 158.81362404 -122.81958008 156.87792969 C-121.27659625 152.76312812 -119.83666771 148.61818534 -118.42285156 144.45751953 C-118.16785889 143.71095093 -117.91286621 142.96438232 -117.65014648 142.19519043 C-116.84408194 139.83510153 -116.03952087 137.47450483 -115.23535156 135.11376953 C-114.17422805 131.99871442 -113.11151208 128.88420916 -112.04785156 125.77001953 C-111.81026123 125.07082397 -111.5726709 124.37162842 -111.32788086 123.65124512 C-109.71771499 118.93760985 -108.00775556 114.2686959 -106.23535156 109.61376953 C-105.75038208 108.33566406 -105.75038208 108.33566406 -105.25561523 107.03173828 C-104.97435791 106.29568359 -104.69310059 105.55962891 -104.40332031 104.80126953 C-104.08258545 103.96104248 -103.76185059 103.12081543 -103.43139648 102.25512695 C-103.09857666 101.383479 -102.76575684 100.51183105 -102.42285156 99.61376953 C-96.88875527 85.17349613 -96.88875527 85.17349613 -91.53369141 70.66650391 C-85.28871435 53.5188551 -75.53212711 39.78711397 -63.58789062 26.16601562 C-62.46374686 24.87588817 -61.35874193 23.56911417 -60.25878906 22.25830078 C-45.69091718 4.96326804 -22.46580217 -12.5450226 0 0 Z " fill="#FDFDFD" transform="translate(1257.2353515625,294.38623046875)"/>
<path d="M0 0 C0.66 0 1.32 0 2 0 C2.029729 1.90616089 2.029729 1.90616089 2.06005859 3.85083008 C2.53754302 34.97631331 2.53754302 34.97631331 4.0625 66.0625 C11.53796175 180.38611474 11.53796175 180.38611474 -1 218 C-1.54680511 221.23406711 -1.91171733 224.49496184 -2.3125 227.75 C-2.50380493 229.28285645 -2.50380493 229.28285645 -2.69897461 230.84667969 C-3.54990849 237.83841007 -4.30541176 244.83653454 -5.015625 251.84375 C-5.14574226 253.12708221 -5.14574226 253.12708221 -5.27848816 254.43634033 C-5.71104682 258.72085979 -6.1366901 263.00595685 -6.55395508 267.29199219 C-7.64899648 278.413474 -8.91950846 289.22456634 -12 300 C-12.52991175 303.17585581 -12.91388505 306.36788165 -13.3125 309.5625 C-14.43851179 318.01912391 -16.09733328 326.225951 -18.08642578 334.51757812 C-20.00808099 342.66759735 -21.39836847 350.86920034 -22.65600586 359.14575195 C-22.80432861 360.09925537 -22.95265137 361.05275879 -23.10546875 362.03515625 C-23.23074951 362.8744165 -23.35603027 363.71367676 -23.48510742 364.57836914 C-24.04433288 367.20850537 -25.00280803 369.50764661 -26 372 C-26.22618748 373.97106229 -26.45128729 375.94229344 -26.66085815 377.91519165 C-27.11176039 380.68702519 -28.17086718 383.17177287 -29.1819458 385.7802124 C-30.59441693 389.61294855 -31.65046551 393.54281759 -32.7421875 397.4765625 C-33.25644725 399.30079906 -33.77077227 401.12501722 -34.28515625 402.94921875 C-35.07858044 405.77869148 -35.8704203 408.60859675 -36.66064453 411.43896484 C-40.85074225 426.42007093 -45.35875193 440.89006968 -52 455 C-52.71243662 456.60234855 -53.42100388 458.2064252 -54.125 459.8125 C-55.6509379 463.26136776 -57.27865129 466.64337002 -59 470 C-60.8671875 469.734375 -60.8671875 469.734375 -63 469 C-67.08653333 463.49787016 -67.77959885 456.32189703 -68.60546875 449.72265625 C-68.84839099 447.04128289 -68.84839099 447.04128289 -70 445 C-70.12531796 441.90521596 -70.18825838 438.83417885 -70.203125 435.73828125 C-70.21000336 434.78092575 -70.21688171 433.82357025 -70.22396851 432.83720398 C-70.24140843 429.66226509 -70.24745954 426.48748465 -70.25 423.3125 C-70.25167175 422.22477295 -70.25334351 421.1370459 -70.25506592 420.01635742 C-70.25716576 397.04413426 -68.94026037 374.24077826 -67.17706299 351.34521484 C-66.9317434 348.09593532 -66.71336729 344.84501096 -66.49609375 341.59375 C-65.54425099 327.87470672 -63.84333278 314.28250335 -62 300.66015625 C-61.28073548 295.28867206 -60.64553751 289.91474002 -60.0625 284.52734375 C-53.98855285 228.8127856 -42.48486138 174.72566252 -29.05731201 120.40377808 C-25.8409006 107.3882539 -22.69524904 94.35627559 -19.56124878 81.32064819 C-14.52102584 60.36281994 -9.43179467 39.41723891 -4.28588867 18.48510742 C-4.06964844 17.60391235 -3.8534082 16.72271729 -3.63061523 15.81481934 C-3.23236198 14.19203551 -2.83326041 12.5694595 -2.43310547 10.94714355 C-1.5413765 7.31127112 -0.69481995 3.6789651 0 0 Z " fill="#F8F8F8" transform="translate(1087,610)"/>
<path d="M0 0 C-2.01444481 7.73675973 -4.36313142 15.30776898 -6.9375 22.875 C-9.10765968 29.31452014 -11.27418714 35.74792262 -13.25 42.25 C-13.54777344 43.22453125 -13.84554687 44.1990625 -14.15234375 45.203125 C-14.73567755 47.12785773 -15.31073338 49.05511245 -15.87890625 50.984375 C-17.94954516 57.67279859 -20.71710814 63.53735547 -24.21875 69.6015625 C-25.63338656 72.30054015 -26.75877247 74.85316964 -27.84765625 77.68359375 C-30.11797753 83.5031366 -32.99036948 88.93692556 -35.9375 94.4375 C-39.89614863 101.85187461 -43.61191731 109.30613104 -47 117 C-47.66 117 -48.32 117 -49 117 C-49.24363281 117.83789062 -49.48726562 118.67578125 -49.73828125 119.5390625 C-51.15696326 123.43055556 -53.05969398 126.84355724 -55.1875 130.375 C-55.6211084 131.10195068 -56.0547168 131.82890137 -56.50146484 132.57788086 C-83.98131343 178.37921601 -83.98131343 178.37921601 -100.54052734 199.13818359 C-102.38649928 201.49304843 -104.18688369 203.88040203 -105.98828125 206.26953125 C-107.0565918 207.68455933 -107.0565918 207.68455933 -108.14648438 209.12817383 C-109.56022632 211.00259296 -110.97178681 212.87865998 -112.38085938 214.7565918 C-116.76968268 220.55340583 -121.19767774 225.80467246 -127 230.25 C-127.639375 230.75015625 -128.27875 231.2503125 -128.9375 231.765625 C-131.28557532 233.1709125 -133.30815046 233.60743861 -136 234 C-136.94589227 204.83498845 -125.40142734 178.68077512 -111 154 C-110.50371094 153.14744629 -110.00742187 152.29489258 -109.49609375 151.41650391 C-106.29626148 145.93648426 -103.05554955 140.48150296 -99.80371094 135.03222656 C-97.8721724 131.78510845 -95.95447056 128.53009497 -94.0390625 125.2734375 C-79.15304184 99.9781234 -63.32739891 75.68655957 -46 52 C-45.23985596 50.95513428 -45.23985596 50.95513428 -44.46435547 49.88916016 C-37.53151875 40.37823828 -30.19841737 31.35792175 -22.38330078 22.55810547 C-20.61836408 20.57013758 -18.8713985 18.566756 -17.125 16.5625 C-16.60421875 15.96953125 -16.0834375 15.3765625 -15.546875 14.765625 C-14.42779965 13.48829657 -13.31385923 12.20646328 -12.203125 10.921875 C-2.7375 0 -2.7375 0 0 0 Z " fill="#FAFAFA" transform="translate(752,996)"/>
<path d="M0 0 C0 3.82971736 -0.02392984 4.94773163 -2 8 C-5.39611602 11.00453032 -9.25425503 13.45066252 -13 16 C-13.83853516 16.57266602 -14.67707031 17.14533203 -15.54101562 17.73535156 C-18.37590338 19.66533997 -21.2176247 21.58476735 -24.0625 23.5 C-25.00327393 24.13599121 -25.94404785 24.77198242 -26.91333008 25.42724609 C-27.79915771 26.01844238 -28.68498535 26.60963867 -29.59765625 27.21875 C-30.79660522 28.0221582 -30.79660522 28.0221582 -32.01977539 28.84179688 C-34 30 -34 30 -36 30 C-36 29.34 -36 28.68 -36 28 C-34.54230825 26.74108439 -33.07856638 25.48793302 -31.57421875 24.28515625 C-29.88573757 22.95069564 -29.88573757 22.95069564 -28.0625 21.0625 C-26.21670803 19.21670803 -24.3335361 17.47431941 -22.375 15.75 C-21.78460937 15.22921875 -21.19421875 14.7084375 -20.5859375 14.171875 C-19 13 -19 13 -17 13 C-17 12.34 -17 11.68 -17 11 C-15.35 10.34 -13.7 9.68 -12 9 C-12 8.01 -12 7.02 -12 6 C-15.3 6.33 -18.6 6.66 -22 7 C-18.67024121 4.78016081 -15.32488685 3.61590228 -11.5625 2.375 C-10.89412109 2.14554688 -10.22574219 1.91609375 -9.53710938 1.6796875 C-6.14346494 0.54959381 -3.61886355 0 0 0 Z " fill="#313131" transform="translate(1700,775)"/>
<path d="M0 0 C0.99 0.33 1.98 0.66 3 1 C0.57148046 3.65420014 -1.86927173 6.29683914 -4.3125 8.9375 C-5.00279297 9.69224609 -5.69308594 10.44699219 -6.40429688 11.22460938 C-7.07138672 11.94326172 -7.73847656 12.66191406 -8.42578125 13.40234375 C-9.03848877 14.06741943 -9.65119629 14.73249512 -10.2824707 15.41772461 C-12 17 -12 17 -15 18 C-15 18.66 -15 19.32 -15 20 C-16.13346275 21.1846927 -17.27601299 22.36179087 -18.45849609 23.49755859 C-21.3586211 26.32419294 -24.0651228 29.33847184 -26.8125 32.3125 C-27.40998047 32.95767578 -28.00746094 33.60285156 -28.62304688 34.26757812 C-30.08291428 35.84423492 -31.54158093 37.42200338 -33 39 C-34.32 38.67 -35.64 38.34 -37 38 C-35.49671154 34.52661246 -33.46591279 32.1773677 -30.875 29.4375 C-26.11900588 24.26526005 -22.01678169 18.75702226 -18 13 C-17 15 -17 15 -17 16 C-16.01 16 -15.02 16 -14 16 C-13.67 15.01 -13.34 14.02 -13 13 C-11.51294684 11.73923754 -10.0223766 10.48148153 -8.4921875 9.2734375 C-6.67850185 7.72563247 -5.41370654 5.90850382 -4 4 C-3.34 4 -2.68 4 -2 4 C-1.34 2.68 -0.68 1.36 0 0 Z " fill="#3F3F3F" transform="translate(589,766)"/>
<path d="M0 0 C0.66 0 1.32 0 2 0 C2 0.66 2 1.32 2 2 C2.721875 2.061875 3.44375 2.12375 4.1875 2.1875 C7.93950492 3.27141253 9.59876799 4.96314775 12 8 C11.8125 10.3125 11.8125 10.3125 11 12 C8.47411298 9.63707344 7.11179163 8.33537489 6 5 C4.00045254 4.95745644 1.99958364 4.95919217 0 5 C-2.3505397 7.3505397 -1.35682178 14.22175751 -1.4296875 17.59179688 C-1.64343294 23.30503432 -2.74749811 27.76972566 -5 33 C-5.57393666 34.66276298 -6.1390867 36.32864519 -6.6875 38 C-6.93886719 38.763125 -7.19023438 39.52625 -7.44921875 40.3125 C-7.63097656 40.869375 -7.81273437 41.42625 -8 42 C-8.33 42 -8.66 42 -9 42 C-9.2065736 35.81703843 -8.47593653 30.28860399 -7.1875 24.25 C-7.00590332 23.37617676 -6.82430664 22.50235352 -6.63720703 21.60205078 C-2.65428865 2.65428865 -2.65428865 2.65428865 0 0 Z " fill="#2B2B2B" transform="translate(1070,201)"/>
<path d="M0 0 C0.33 0 0.66 0 1 0 C1.47525059 24.82026681 0.17357634 49.27749607 -2 74 C-2.33 74 -2.66 74 -3 74 C-3.23993625 57.49976854 -3.00507823 41.10043784 -2.0625 24.625 C-2.01893372 23.85128052 -1.97536743 23.07756104 -1.93048096 22.28039551 C-1.50399012 14.81789731 -0.98107536 7.41222715 0 0 Z " fill="#525252" transform="translate(816,447)"/>
<path d="M0 0 C2.80849619 1.4042481 2.88266612 3.10807701 4 6 C4.45246094 6.6909375 4.90492188 7.381875 5.37109375 8.09375 C7.55284091 11.98636364 8.80191126 16.00148894 10.125 20.25 C10.38925781 21.05824219 10.65351562 21.86648438 10.92578125 22.69921875 C12.64497375 28.15350966 13.53069476 33.2996583 14 39 C13.505 37.515 13.505 37.515 13 36 C12.34 36 11.68 36 11 36 C8.41540233 28.33035667 6.36620268 21.11138929 6 13 C4.35 12.67 2.7 12.34 1 12 C0.67 8.04 0.34 4.08 0 0 Z " fill="#363636" transform="translate(831,278)"/>
<path d="M0 0 C0.33 0 0.66 0 1 0 C1.00410889 0.62865967 1.00821777 1.25731934 1.01245117 1.9050293 C0.60398276 21.07644026 0.60398276 21.07644026 8.6640625 37.828125 C9.10492187 38.21484375 9.54578125 38.6015625 10 39 C9.67 39.99 9.34 40.98 9 42 C-0.50447257 31.92265511 -1.4676734 20.70260965 -1.203125 7.43359375 C-1.0447825 4.75699648 -0.80065809 2.5375696 0 0 Z " fill="#3B3B3B" transform="translate(587,1203)"/>
<path d="M0 0 C2.44262536 3.66393804 2.26207141 6.33150445 2.1875 10.5625 C2.18105469 11.32739746 2.17460938 12.09229492 2.16796875 12.88037109 C2.02521024 24.25867058 1.49664074 35.6327387 1 47 C0.67 47 0.34 47 0 47 C0 34.13 0 21.26 0 8 C-0.66 8 -1.32 8 -2 8 C-1.125 1.125 -1.125 1.125 0 0 Z " fill="#D4D4D4" transform="translate(818,353)"/>
<path d="M0 0 C3.63 0 7.26 0 11 0 C11 0.66 11 1.32 11 2 C16.85518647 2.20828727 21.43117342 1.98886663 27 0 C29.375 0.375 29.375 0.375 31 1 C25.62648608 3.67261613 21.4690539 4.47110284 15.5 4.375 C14.41912109 4.39240234 14.41912109 4.39240234 13.31640625 4.41015625 C8.18230847 4.382304 4.59431202 3.28506571 0 1 C0 0.67 0 0.34 0 0 Z " fill="#2A2A2A" transform="translate(605,1249)"/>
<path d="M0 0 C0 5.13043478 0 5.13043478 -2 8 C-4.24340626 9.80819581 -6.58773271 11.42622134 -9 13 C-9.33 12.01 -9.66 11.02 -10 10 C-9.21625 9.236875 -8.4325 8.47375 -7.625 7.6875 C-4.92742283 5.09108195 -4.92742283 5.09108195 -3 2 C-5.64 2.33 -8.28 2.66 -11 3 C-6.9903514 0.32690093 -4.82843714 0 0 0 Z " fill="#999999" transform="translate(1700,775)"/>
<path d="M0 0 C0.66 0.33 1.32 0.66 2 1 C-2.71862182 8.2433909 -7.56488043 15.27403953 -13 22 C-13.33 21.01 -13.66 20.02 -14 19 C-13.34 19 -12.68 19 -12 19 C-12 18.01 -12 17.02 -12 16 C-11.34 16 -10.68 16 -10 16 C-9.8453125 15.13375 -9.8453125 15.13375 -9.6875 14.25 C-8.89103535 11.64338842 -7.80934723 10.0264689 -6 8 C-5.34 8 -4.68 8 -4 8 C-3.8453125 7.13375 -3.8453125 7.13375 -3.6875 6.25 C-2.90207202 3.67950842 -1.69495803 2.06342716 0 0 Z " fill="#2B2B2B" transform="translate(721,1157)"/>
<path d="M0 0 C0 4.58525346 0 4.58525346 -1 7 C-3.50390625 8.921875 -3.50390625 8.921875 -6.5625 10.75 C-7.57441406 11.36359375 -8.58632812 11.9771875 -9.62890625 12.609375 C-10.80259766 13.29773438 -10.80259766 13.29773438 -12 14 C-11.74756728 10.35590712 -11.15280295 9.14994237 -8.49609375 6.54296875 C-7.48675781 5.76566406 -6.47742187 4.98835937 -5.4375 4.1875 C-4.42558594 3.39730469 -3.41367188 2.60710938 -2.37109375 1.79296875 C-1.58863281 1.20128906 -0.80617188 0.60960937 0 0 Z " fill="#545454" transform="translate(1691,782)"/>
<path d="M0 0 C0.33 0.66 0.66 1.32 1 2 C0.67 2.66 0.34 3.32 0 4 C0.99 4.33 1.98 4.66 3 5 C1.93283928 6.20205464 0.84561663 7.38632333 -0.25 8.5625 C-1.15492188 9.55443359 -1.15492188 9.55443359 -2.078125 10.56640625 C-4 12 -4 12 -6.234375 11.71484375 C-6.81703125 11.47894531 -7.3996875 11.24304688 -8 11 C-6.63629701 8.00779732 -5.05091917 5.70973471 -2.875 3.25 C-2.33617187 2.63640625 -1.79734375 2.0228125 -1.2421875 1.390625 C-0.62730469 0.70226562 -0.62730469 0.70226562 0 0 Z " fill="#848484" transform="translate(560,793)"/>
<path d="M0 0 C0.66 0 1.32 0 2 0 C2 0.66 2 1.32 2 2 C2.721875 2.061875 3.44375 2.12375 4.1875 2.1875 C7.93950492 3.27141253 9.59876799 4.96314775 12 8 C11.8125 10.3125 11.8125 10.3125 11 12 C8.47411298 9.63707344 7.11179163 8.33537489 6 5 C3.12586875 4.66602213 3.12586875 4.66602213 0 5 C-1.91256712 6.88077873 -1.91256712 6.88077873 -3 9 C-2.25 2.25 -2.25 2.25 0 0 Z " fill="#2B2B2B" transform="translate(1070,201)"/>
<path d="M0 0 C0.66 0.33 1.32 0.66 2 1 C-3.61 6.61 -9.22 12.22 -15 18 C-15.66 17.67 -16.32 17.34 -17 17 C-11.83794309 10.72690435 -6.12627407 5.3250511 0 0 Z " fill="#D4D4D4" transform="translate(1212,302)"/>
<path d="M0 0 C0.84488634 2.37029323 1.18199085 3.54712167 0.22729492 5.92285156 C-0.18415771 6.5722168 -0.59561035 7.22158203 -1.01953125 7.890625 C-1.46490234 8.59960938 -1.91027344 9.30859375 -2.36914062 10.0390625 C-2.84544922 10.76867187 -3.32175781 11.49828125 -3.8125 12.25 C-4.27720703 12.99507812 -4.74191406 13.74015625 -5.22070312 14.5078125 C-7.79592198 18.5424452 -7.79592198 18.5424452 -9 20 C-9.66 20 -10.32 20 -11 20 C-9.36047417 15.3606824 -6.93128948 11.36144142 -4.375 7.1875 C-3.95476562 6.49462891 -3.53453125 5.80175781 -3.1015625 5.08789062 C-2.0710533 3.38989252 -1.03598319 1.69466386 0 0 Z " fill="#ACACAC" transform="translate(1285,673)"/>
<path d="M0 0 C2.80849619 1.4042481 2.88266612 3.10807701 4 6 C4.495 6.7425 4.99 7.485 5.5 8.25 C7.54567312 12.00040071 8.22707602 15.82621052 9 20 C7.5 18.75 7.5 18.75 6 17 C6 15.68 6 14.36 6 13 C4.35 12.67 2.7 12.34 1 12 C0.67 8.04 0.34 4.08 0 0 Z " fill="#4E4E4E" transform="translate(831,278)"/>
<path d="M0 0 C0.66 0 1.32 0 2 0 C1.34 2.64 0.68 5.28 0 8 C-0.66 7.34 -1.32 6.68 -2 6 C-5.96 9.96 -9.92 13.92 -14 18 C-14.66 17.67 -15.32 17.34 -16 17 C-15.34773437 16.35933594 -14.69546875 15.71867188 -14.0234375 15.05859375 C-8.05479334 9.1585676 -8.05479334 9.1585676 -2.5 2.875 C-1.675 1.92625 -0.85 0.9775 0 0 Z " fill="#CCCCCC" transform="translate(750,996)"/>
<path d="M0 0 C0.33 0 0.66 0 1 0 C1 5.94 1 11.88 1 18 C1.66 18 2.32 18 3 18 C3.33 17.01 3.66 16.02 4 15 C4.33 15.66 4.66 16.32 5 17 C4.67 17.99 4.34 18.98 4 20 C3.34 20 2.68 20 2 20 C2 20.66 2 21.32 2 22 C1.01 22.33 0.02 22.66 -1 23 C-1.1567564 15.28410183 -0.67453101 7.68483539 0 0 Z " fill="#979797" transform="translate(1124,792)"/>
<path d="M0 0 C0.33 0 0.66 0 1 0 C1.12117187 1.03898437 1.24234375 2.07796875 1.3671875 3.1484375 C2.20615638 10.17385331 3.05673649 17.09678615 4.73046875 23.984375 C5.03417172 26.25554506 4.68872334 27.83125417 4 30 C0.66759781 19.77224987 -0.16071923 10.71461515 0 0 Z " fill="#343434" transform="translate(853,355)"/>
<path d="M0 0 C0.33 0 0.66 0 1 0 C0.54362211 9.46383622 -0.18152232 18.67809502 -2 28 C-2.33 28 -2.66 28 -3 28 C-2.88909054 24.64521419 -2.75871222 21.29144824 -2.625 17.9375 C-2.5940625 16.99455078 -2.563125 16.05160156 -2.53125 15.08007812 C-2.30731646 9.72433421 -1.73292417 5.07901759 0 0 Z " fill="#848484" transform="translate(1079,875)"/>
<path d="M0 0 C-0.31002146 3.19267711 -0.57146535 4.61339633 -2.99609375 6.80078125 C-3.80175781 7.29964844 -4.60742188 7.79851563 -5.4375 8.3125 C-6.24058594 8.82425781 -7.04367187 9.33601562 -7.87109375 9.86328125 C-10 11 -10 11 -12 11 C-12 10.34 -12 9.68 -12 9 C-10.5498829 7.74762614 -9.09372928 6.50079426 -7.59375 5.30859375 C-5.82407293 3.90509072 -5.82407293 3.90509072 -3.75 1.6875 C-2 0 -2 0 0 0 Z " fill="#272727" transform="translate(1676,794)"/>
<path d="M0 0 C0.67578125 1.703125 0.67578125 1.703125 1 4 C-0.14453125 6.359375 -0.14453125 6.359375 -1.8125 8.75 C-2.62654297 9.94882812 -2.62654297 9.94882812 -3.45703125 11.171875 C-3.96621094 11.77515625 -4.47539063 12.3784375 -5 13 C-5.66 13 -6.32 13 -7 13 C-5.35821735 8.22390502 -2.73453298 4.20617096 0 0 Z " fill="#A9A9A9" transform="translate(1270,698)"/>
<path d="M0 0 C0.33 0 0.66 0 1 0 C1.36517527 6.57315478 0.13619737 11.79485526 -2 18 C-3.51553092 14.02549507 -2.49888623 10.79518851 -1.5625 6.75 C-1.27503906 5.48671875 -0.98757813 4.2234375 -0.69140625 2.921875 C-0.46324219 1.95765625 -0.23507812 0.9934375 0 0 Z " fill="#595959" transform="translate(1066,211)"/>
<path d="M0 0 C1.65 0 3.3 0 5 0 C3.84826645 2.46800047 2.95216435 4.04783565 1 6 C0.01 6 -0.98 6 -2 6 C-1.34 4.02 -0.68 2.04 0 0 Z " fill="#474747" transform="translate(562,791)"/>
<path d="M0 0 C0.33 0 0.66 0 1 0 C1.19243024 4.81075606 0.86687649 8.54023951 -1 13 C-1.66 13.66 -2.32 14.32 -3 15 C-2.44854729 9.76119922 -1.57077907 5.02649303 0 0 Z " fill="#C8C8C8" transform="translate(1087,613)"/>
<path d="M0 0 C3.63 0 7.26 0 11 0 C11 0.66 11 1.32 11 2 C9.4375 3.1875 9.4375 3.1875 7 4 C3.25 2.625 3.25 2.625 0 1 C0 0.67 0 0.34 0 0 Z " fill="#4D4D4D" transform="translate(605,1249)"/>
<path d="M0 0 C2.67927341 4.01891012 2.15601248 6.24161923 2 11 C1.34 10.01 0.68 9.02 0 8 C-0.66 8 -1.32 8 -2 8 C-1.125 1.125 -1.125 1.125 0 0 Z " fill="#ADADAD" transform="translate(818,353)"/>
<path d="M0 0 C0.66 0.33 1.32 0.66 2 1 C-0.31 4.63 -2.62 8.26 -5 12 C-5.33 10.68 -5.66 9.36 -6 8 C-5.34 8 -4.68 8 -4 8 C-3.8453125 7.13375 -3.8453125 7.13375 -3.6875 6.25 C-2.90207202 3.67950842 -1.69495803 2.06342716 0 0 Z " fill="#353535" transform="translate(721,1157)"/>
<path d="M0 0 C1.32 0.33 2.64 0.66 4 1 C3 4 3 4 -0.0625 5.6875 C-1.031875 6.120625 -2.00125 6.55375 -3 7 C-2.38722388 4.03824877 -1.74627478 2.61941217 0 0 Z " fill="#7F7F7F" transform="translate(1693,781)"/>
<path d="M0 0 C0.66 0 1.32 0 2 0 C2 0.66 2 1.32 2 2 C3.32 2.33 4.64 2.66 6 3 C5.071875 3.2475 4.14375 3.495 3.1875 3.75 C-0.16458325 5.06454245 -1.1877803 5.97963384 -3 9 C-2.25 2.25 -2.25 2.25 0 0 Z " fill="#6B6B6B" transform="translate(1070,201)"/>
<path d="M0 0 C-0.8125 1.9375 -0.8125 1.9375 -2 4 C-2.99 4.33 -3.98 4.66 -5 5 C-5 4.01 -5 3.02 -5 2 C-6.32 1.67 -7.64 1.34 -9 1 C-5.846632 0.29925156 -3.27275026 0 0 0 Z " fill="#4D4D4D" transform="translate(1697,777)"/>
<path d="M0 0 C0.33 0 0.66 0 1 0 C1.24954005 1.43410368 1.47392642 2.87260072 1.6875 4.3125 C1.87892578 5.51326172 1.87892578 5.51326172 2.07421875 6.73828125 C2 9 2 9 -1 12 C-0.67 8.04 -0.34 4.08 0 0 Z " fill="#B4B4B4" transform="translate(847,784)"/>
<path d="M0 0 C0 2.70254461 -0.03430669 4.50529228 -1 7 C-3.0625 8.25 -3.0625 8.25 -5 9 C-4.42647107 5.12867972 -2.51295648 2.91827204 0 0 Z " fill="#696969" transform="translate(1691,782)"/>
<path d="M0 0 C0.99 0.33 1.98 0.66 3 1 C1.02 3.31 -0.96 5.62 -3 8 C-3.66 7.01 -4.32 6.02 -5 5 C-4.01 4.67 -3.02 4.34 -2 4 C-0.79117904 1.99983534 -0.79117904 1.99983534 0 0 Z " fill="#242424" transform="translate(589,766)"/>
<path d="M0 0 C0.6875 1.6875 0.6875 1.6875 1 4 C-0.3125 6.75 -0.3125 6.75 -2 9 C-2.66 9 -3.32 9 -4 9 C-2.94124926 5.59687262 -1.99097846 2.98646769 0 0 Z " fill="#9F9F9F" transform="translate(1294,657)"/>
</svg>
